<?xml version="1.0" standalone="no"?>
<!DOCTYPE svg PUBLIC "-//W3C//DTD SVG 20010904//EN"
 "http://www.w3.org/TR/2001/REC-SVG-20010904/DTD/svg10.dtd">
<svg version="1.0" xmlns="http://www.w3.org/2000/svg"
 width="16" height="16" viewBox="0 0 500.000000 500.000000" className="bi bi-r-square"
 preserveAspectRatio="xMidYMid meet">

<g transform="translate(0.000000,500.000000) scale(0.100000,-0.100000)"
fill="#004AAD" stroke="none">
<path d="M440 4496 l0 -386 130 0 130 0 0 -1680 0 -1680 525 0 525 0 0 750 0
750 128 0 127 -1 408 -562 c224 -309 438 -596 475 -637 159 -179 291 -273 463
-331 79 -27 114 -33 214 -37 198 -7 171 -28 399 297 108 154 196 281 196 284
0 2 -21 12 -47 22 -135 51 -292 180 -432 354 -128 159 -541 700 -541 709 0 4
32 18 71 31 40 13 128 52 198 86 301 152 468 361 522 655 22 117 19 735 -4
857 -36 193 -110 344 -234 474 -214 224 -515 345 -1013 406 -103 13 -314 16
-1182 20 l-1058 5 0 -386z m2054 -414 c88 -33 135 -63 197 -129 97 -102 144
-221 156 -394 14 -213 -68 -389 -233 -502 -137 -94 -222 -109 -589 -105 l-270
3 -3 578 -2 578 342 -3 c324 -4 346 -5 402 -26z"/>
<path d="M4574 499 c-187 -166 -311 -213 -554 -213 -166 0 -263 16 -525 89
-372 103 -575 111 -757 27 -72 -33 -117 -67 -173 -132 l-40 -45 35 28 c138
109 235 147 395 154 131 6 283 -21 489 -87 283 -89 443 -121 611 -121 269 0
514 110 590 266 25 50 27 95 6 95 -5 0 -39 -27 -77 -61z"/>
</g>
</svg>
