
<svg version="1.0" xmlns="http://www.w3.org/2000/svg"
 width="500.000000pt" height="500.000000pt" viewBox="0 0 500.000000 500.000000"
 preserveAspectRatio="xMidYMid meet">

<g transform="translate(0.000000,500.000000) scale(0.100000,-0.100000)"
fill="#004aad" stroke="none">
<path d="M1030 3781 l0 -261 90 0 90 0 0 -1150 0 -1150 360 0 360 0 0 515 0
515 84 0 84 0 289 -397 c372 -513 453 -594 648 -656 76 -23 225 -30 257 -11
10 5 78 95 151 199 l134 190 -35 12 c-61 21 -171 103 -242 182 -38 42 -150
182 -249 311 l-180 234 77 32 c257 104 383 221 450 419 26 80 27 82 26 360 0
253 -3 287 -22 356 -33 123 -75 194 -166 285 -124 124 -270 190 -550 247 -95
19 -144 20 -878 24 l-778 4 0 -260z m1442 -299 c111 -55 175 -146 199 -286 32
-188 -48 -351 -211 -430 l-65 -31 -232 -3 -233 -3 0 396 0 397 238 -4 238 -3
66 -33z"/>
<path d="M3925 1028 c-171 -151 -318 -209 -534 -209 -132 0 -254 19 -458 72
-512 134 -655 139 -867 32 -47 -24 -181 -141 -172 -150 2 -3 30 16 61 41 113
93 228 131 390 130 133 0 221 -17 460 -89 430 -129 622 -151 836 -96 215 55
391 203 380 319 -2 24 -28 11 -96 -50z"/>
</g>
</svg>

